<svg xmlns="http://www.w3.org/2000/svg" viewBox="0 0 403 97"><defs><style>.cls-1{fill:#3a5a98;}.cls-2{fill:#fff;}</style></defs><title>Artboard 1</title><g id="Find_Us_On_Facebook" data-name="Find Us On Facebook"><rect class="cls-1" x="321.75" y="14.17" width="71.7" height="71.7" rx="3.96" ry="3.96"/><path class="cls-1" d="M15.65,29.12H43.51V34.9H21.78V49.55h18v5.7h-18v19H15.65Z"/><path class="cls-1" d="M53.78,33.89c-2.67,0-3.9-2-3.9-4.26s1.23-4.26,3.9-4.26,3.89,2,3.89,4.26S56.45,33.89,53.78,33.89Zm-3,40.34V41l5.92-.94V74.23Z"/><path class="cls-1" d="M86.8,74.23V53.45c0-5.7-2.16-7.65-6.85-7.65a13.26,13.26,0,0,0-8.67,3.61V74.23H65.37V41l5.91-.94v5c3-3,6.93-5,10.76-5,6.71,0,10.68,4.26,10.68,11.41V74.23Z"/><path class="cls-1" d="M124.5,25.59l5.92-.94V74.23H124.5v-3c-2.38,2.24-5.34,4.12-9.24,4.12-9.31,0-14.72-7.51-14.72-17.47s6.93-17.76,16.81-17.76a25.47,25.47,0,0,1,7.15,1.09Zm-7.36,19.85c-6.71,0-10.47,5.48-10.47,12.27,0,7.29,3.68,12.12,9.82,12.12a12.06,12.06,0,0,0,8-3.17V47.82A11.39,11.39,0,0,0,117.14,45.44Z"/><path class="cls-1" d="M158.78,41.18V62c0,5.71,2.17,7.66,6.5,7.66a13.49,13.49,0,0,0,9-3.61V41.18h5.92v33.2l-5.92.94V70.48a15.73,15.73,0,0,1-11.11,4.84c-6.35,0-10.32-4.26-10.32-11.41V41.18Z"/><path class="cls-1" d="M199.15,75.39a23.45,23.45,0,0,1-11.55-3.1l1.52-5.42A19.34,19.34,0,0,0,199.3,70c3.75,0,6.57-1.74,6.57-4.7,0-3.32-3.9-4.4-7.8-5.48-4.69-1.3-9.81-3.61-9.81-9.67s5.19-10,11.83-10a24.4,24.4,0,0,1,10.68,2.46L209.26,48a21.86,21.86,0,0,0-9.46-2.45c-3.53,0-5.84,1.44-5.84,4.11,0,3.18,3.53,4.26,7.65,5.34,4.83,1.3,10,3.61,10,9.89S206.37,75.39,199.15,75.39Z"/><path class="cls-1" d="M246.2,75.32c-9.38,0-15.95-6.93-15.95-17.61S237,40,246.56,40s15.88,7,15.88,17.69S255.51,75.32,246.2,75.32Zm.07-30c-6.56,0-10.17,5.13-10.17,12.27S239.92,70,246.42,70s10.17-5.06,10.17-12.2S252.77,45.36,246.27,45.36Z"/><path class="cls-1" d="M290.36,74.23V53.45c0-5.7-2.17-7.65-6.86-7.65a13.22,13.22,0,0,0-8.66,3.61V74.23h-5.92V41l5.92-.94v5c3-3,6.93-5,10.75-5,6.71,0,10.68,4.26,10.68,11.41V74.23Z"/><path class="cls-2" d="M380.54,58.1l1.39-10.82H371.22V40.37c0-3.13.87-5.26,5.36-5.26h5.73V25.42A77.67,77.67,0,0,0,374,25C365.7,25,360,30,360,39.3v8H350.7V58.1H360V85.87h11.18V58.1Z"/></g></svg>