<svg xmlns="http://www.w3.org/2000/svg" viewBox="0 0 850 300"><title>Logo</title><g id="Layer_2" data-name="Layer 2"><path d="M156.4,218.9c0-51.9-106.5-40.8-106.5-97.5C49.9,95.3,76.6,77,105.1,77c17.1,0,34.2,8.7,34.2,25.2,0,15-8.1,30.6-24.3,30.6-9.9,0-21.3-4.2-20.7-14.1.6-7.2,5.7-13.2,13.2-13.2,4.8,0,9.9,1.2,9.9,7.2a16,16,0,0,0-6.6-1.8c-3.9,0-4.2,5.1-4.2,9.3s4.5,8.4,9.3,8.4c11.4,0,13.8-12.6,13.8-23.7,0-12.9-12.3-23.7-25.5-23.7-18.6,0-33.6,16.8-33.6,33.3,0,45.6,96.3,49.2,96.3,101.4,0,17.7-8.1,34.8-27.3,50.7-13.2,10.8-23.7,15.9-40.8,15.9-25.5,0-46.8-22.8-46.8-48.3,0-21.6,23.4-40.5,41.4-40.5,17.1,0,29.7,8.7,29.7,23.7,0,15.6-15,27.6-30,27.6a11.19,11.19,0,0,1-11.4-11.4c0-6,4.8-10.2,11.7-10.2a6.44,6.44,0,0,1,6,3.3s-8.1,2.1-8.1,5.7c0,4.8,3.3,8.4,7.8,8.4,9,0,13.5-12.3,13.5-19.8,0-11.7-9.3-21.9-21.3-21.9-18.3,0-23.7,20.7-23.7,38.7,0,19.8,13.5,38.4,33.9,38.4,14.4,0,23.4-3.3,34.5-12.3C150.7,251.9,156.4,237.8,156.4,218.9Z"/><path d="M198.7,272.9c21-.3,38.1,2.4,43.8,1.8-2.1-27-7.2-51.9-9.6-79.2s-4.5-48-4.5-75.6c0-11.4.3-32.4.6-33.9-19.2.3-55.5,10.5-55.5,33.3,0,9.9,11.1,13.8,18.9,13.8,6.3,0,18-.3,18-6.3,0-2.4-3.3-4.2-5.7-4.2-3.9,0-4.8,2.1-4.8,5.4-4.8-.6-6-6.3-2.7-9.9a8.21,8.21,0,0,1,6.6-2.7c5.4,0,11.4,5.4,11.4,9.6,0,9.9-10.5,18-24,18-14.1,0-25.5-9.6-25.5-21.9,0-14.1,15.3-27.9,27.3-32.4A159.72,159.72,0,0,1,229.3,80c0-6.3.3-29.7.3-29.7,6.3.3,13.8,1.5,22.2,1.5-2.1,9.3-4.8,18-5.7,27.6,48.6,0,82.5,27.9,82.5,58.5,0,40.5-30.9,71.4-61.5,71.4-10.2,0-19.5-9.9-19.5-20.1,0-6.9,14.7-13.5,21.9-13.5,5.7,0,6.6,3.9,6.6,9,0,2.7-5.4,7.2-5.4,7.2-2.4-3.3-4.2-9-8.4-9-5.4,0-6.9,5.7-6.9,10.2,0,7.2,6.6,12,14.1,12,21,0,38.4-26.1,38.4-56.1,0-9.6-2.1-23.1-6-30.3-13.2-24.6-32.4-30.9-56.4-32.4-3,34.8-2.7,63.3-2.7,99,0,30.6,5.7,59.7,7.2,90.3l36.6,3-2.1,8.7c-21.6-3.9-66.6-6.3-84.9-5.7Z"/><path d="M346.22,277.78l27.09-.86c0-49-.86-67.51-3.44-107.93-2.15-32.25-6-66.22-6-66.22l-23.22-.86V94.17s21.07.43,30.1.43c15.91,0,40-7.74,40-7.74v9.46l-18.91,4.73s-2.58,41.28-4.3,67.51c-2.15,40-5.16,106.64-5.16,106.64a379,379,0,0,0,45.15-2.58v11.61c-9.46,0-34,0-51.17.86-11.61.43-30.1,4.3-30.1,4.3Zm63.64-246c-3.44-6.45-12.9-12.9-23.65-12.9-15.48,0-31.39,10.75-31.39,23.65,0,18.06,17.2,24.94,24.51,24.94,12.47,0,16.34-7.31,16.34-14.19,0-5.16-2.15-15.91-12.9-15.91-2.58,0-8.17,2.58-7.74,6.45.43,4.3,3,4.73,6,4.73S387.93,46,387.93,46,386.21,56.33,378,56.33c-5.16,0-8.6-7.74-8.6-10.32,0-6.88,6.45-12.9,15.05-12.9,6,0,22.36,3,22.36,17.63,0,12.9-15.48,21.07-28,21.07-15.48,0-31-11.61-31-30.1,0-18.92,15.91-35.26,30.53-35.26,20.64,0,30.1,9.89,34,24.94Z"/><path d="M593,279.8c-5.7-11.4-24.3-46.8-28.2-54-14.7-27-18.3-33.6-30.3-54.6C524,152.6,509,128.9,497.89,113c1.5,15.9,3.6,41.4,3.6,62.7,0,19.5,0,39-1.5,56.4-1.8,21.9-8.7,49.8-34.8,49.8-21,0-44.4-12.9-44.4-33.9,0-14.1,17.7-29.1,33.9-29.1,7.5,0,16.2,3.9,16.2,11.4,0,8.1-7.8,15.3-19.5,15.3a5.13,5.13,0,0,1-5.4-5.1c0-2.4,2.4-4.8,2.4-4.8,2.7,1.8,4.2,5.7,7.5,5.7,3.9,0,6.3-1.5,6.3-6.6,0-5.4-9-10.5-15.3-10.5-8.4,0-13.8,10.8-13.8,17.7,0,13.5,7.2,32.7,22.5,32.7,35.4,0,39.6-54.6,39.6-79.8,0-23.7-2.7-53.1-4.2-66.3-1.5-12.6-3-27.6-5.1-34.8-9.9.3-38.7,1.5-38.7,1.5V88.7c17.1,0,51-1.8,62.1-3.9.9,3.6,30,64.5,33.9,72.6,11.4,22.2,36,67.8,43.8,80.4-.6-29.1-1.5-53.1-1.5-79.8,0-19.2.3-37.5,3.6-48,6-19.2,24.3-29.1,47.1-29.1,14.7,0,25.8,6,25.8,16.8,0,6.9-12.6,18.9-30.6,18.9-7.2,0-18.9-6.9-18.9-12,0-7.2,4.8-10.8,10.5-10.8a6.92,6.92,0,0,1,6,3.3c-1.8,2.1-4.2,4.2-4.2,6.9,0,3.9,1.5,8.4,9.9,8.4,10.5,0,12.9-7.2,12.9-11.1,0-12-12.6-15-21-15-17.4,0-27,13.8-31.5,38.4-2.1,12-3.3,27.3-3.3,57,0,33.9,1.2,63.3,6.6,97.2Z"/><path d="M662.88,274.1c12.6-14.1,52.8-63,71.4-94.8,13.2-22.5,37.5-75.3,42.3-88.8-13.8,6-25.2,10.8-52.2,14.1a266.8,266.8,0,0,1-30.9,1.8c-2.4,21.6-5.1,34.2-5.1,34.2l-8.7-.9s6.9-24,6.9-36.6c0-12.3-1.5-20.7-2.4-28.2a57.58,57.58,0,0,1,6.6-.9l2.7,16.8c30.6.9,51.3-.3,69-3.6,8.7-1.5,23.1-4.8,27.3-10.2,1.5,2.4,9,8.7,10.2,9.6-8.7,18.6-32.7,68.4-59.1,103.8-17.7,23.7-54.6,64.2-63.6,76.2,8.7-4.5,32.1-8.7,45.9-8.7,14.1,0,34.2,8.1,57,8.1,12.6,0,22.8-16.5,22.8-29.1,0-9-8.7-22.5-17.7-22.5-11.4,0-14.7,7.5-14.7,10.8,0,6.6,3.9,10.5,11.4,10.5,2.7,0,7.2-4.8,7.2-8.7,3.6,0,5.4,3.6,5.4,7.2,0,5.1-8.7,8.7-13.8,8.7-8.7,0-15-11.4-15-14.4,0-13.2,13.8-24.9,23.7-24.9,6.3,0,23.1,6.9,23.1,26.7,0,18.6-19.5,47.7-53.7,47.7-14.4,0-40.8-4.5-63.9-4.5-11.4,0-23.4.6-30.3,4.2Z"/></g></svg>